<mxGraphModel dx="1003" dy="617" grid="0" gridSize="10" guides="1" tooltips="1" connect="1" arrows="1" fold="1" page="1" pageScale="1" pageWidth="1100" pageHeight="850" background="#000000" math="0" shadow="1">
  <root>
    <mxCell id="0" />
    <mxCell id="1" parent="0" />
    <mxCell id="B29HTKChRzMkVLrq_tk1-1" value="Usagers" style="shape=table;startSize=30;container=1;collapsible=1;childLayout=tableLayout;fixedRows=1;rowLines=0;fontStyle=1;align=center;resizeLast=1;" parent="1" vertex="1">
      <mxGeometry x="40" y="40" width="250" height="220" as="geometry" />
    </mxCell>
    <mxCell id="B29HTKChRzMkVLrq_tk1-2" value="" style="shape=partialRectangle;collapsible=0;dropTarget=0;pointerEvents=0;fillColor=none;top=0;left=0;bottom=1;right=0;points=[[0,0.5],[1,0.5]];portConstraint=eastwest;" parent="B29HTKChRzMkVLrq_tk1-1" vertex="1">
      <mxGeometry y="30" width="250" height="30" as="geometry" />
    </mxCell>
    <mxCell id="B29HTKChRzMkVLrq_tk1-3" value="PK" style="shape=partialRectangle;connectable=0;fillColor=none;top=0;left=0;bottom=0;right=0;fontStyle=1;overflow=hidden;" parent="B29HTKChRzMkVLrq_tk1-2" vertex="1">
      <mxGeometry width="30" height="30" as="geometry" />
    </mxCell>
    <mxCell id="B29HTKChRzMkVLrq_tk1-4" value="id INT NN AUTO INCREMENT" style="shape=partialRectangle;connectable=0;fillColor=none;top=0;left=0;bottom=0;right=0;align=left;spacingLeft=6;fontStyle=5;overflow=hidden;" parent="B29HTKChRzMkVLrq_tk1-2" vertex="1">
      <mxGeometry x="30" width="220" height="30" as="geometry" />
    </mxCell>
    <mxCell id="B29HTKChRzMkVLrq_tk1-5" value="" style="shape=partialRectangle;collapsible=0;dropTarget=0;pointerEvents=0;fillColor=none;top=0;left=0;bottom=0;right=0;points=[[0,0.5],[1,0.5]];portConstraint=eastwest;" parent="B29HTKChRzMkVLrq_tk1-1" vertex="1">
      <mxGeometry y="60" width="250" height="30" as="geometry" />
    </mxCell>
    <mxCell id="B29HTKChRzMkVLrq_tk1-6" value="" style="shape=partialRectangle;connectable=0;fillColor=none;top=0;left=0;bottom=0;right=0;editable=1;overflow=hidden;" parent="B29HTKChRzMkVLrq_tk1-5" vertex="1">
      <mxGeometry width="30" height="30" as="geometry" />
    </mxCell>
    <mxCell id="B29HTKChRzMkVLrq_tk1-7" value="prenom VARCHAR(50) NN" style="shape=partialRectangle;connectable=0;fillColor=none;top=0;left=0;bottom=0;right=0;align=left;spacingLeft=6;overflow=hidden;" parent="B29HTKChRzMkVLrq_tk1-5" vertex="1">
      <mxGeometry x="30" width="220" height="30" as="geometry" />
    </mxCell>
    <mxCell id="B29HTKChRzMkVLrq_tk1-8" value="" style="shape=partialRectangle;collapsible=0;dropTarget=0;pointerEvents=0;fillColor=none;top=0;left=0;bottom=0;right=0;points=[[0,0.5],[1,0.5]];portConstraint=eastwest;" parent="B29HTKChRzMkVLrq_tk1-1" vertex="1">
      <mxGeometry y="90" width="250" height="30" as="geometry" />
    </mxCell>
    <mxCell id="B29HTKChRzMkVLrq_tk1-9" value="" style="shape=partialRectangle;connectable=0;fillColor=none;top=0;left=0;bottom=0;right=0;editable=1;overflow=hidden;" parent="B29HTKChRzMkVLrq_tk1-8" vertex="1">
      <mxGeometry width="30" height="30" as="geometry" />
    </mxCell>
    <mxCell id="B29HTKChRzMkVLrq_tk1-10" value="nom VARCHAR(50) NN" style="shape=partialRectangle;connectable=0;fillColor=none;top=0;left=0;bottom=0;right=0;align=left;spacingLeft=6;overflow=hidden;" parent="B29HTKChRzMkVLrq_tk1-8" vertex="1">
      <mxGeometry x="30" width="220" height="30" as="geometry" />
    </mxCell>
    <mxCell id="B29HTKChRzMkVLrq_tk1-11" value="" style="shape=partialRectangle;collapsible=0;dropTarget=0;pointerEvents=0;fillColor=none;top=0;left=0;bottom=0;right=0;points=[[0,0.5],[1,0.5]];portConstraint=eastwest;" parent="B29HTKChRzMkVLrq_tk1-1" vertex="1">
      <mxGeometry y="120" width="250" height="30" as="geometry" />
    </mxCell>
    <mxCell id="B29HTKChRzMkVLrq_tk1-12" value="" style="shape=partialRectangle;connectable=0;fillColor=none;top=0;left=0;bottom=0;right=0;editable=1;overflow=hidden;" parent="B29HTKChRzMkVLrq_tk1-11" vertex="1">
      <mxGeometry width="30" height="30" as="geometry" />
    </mxCell>
    <mxCell id="B29HTKChRzMkVLrq_tk1-13" value="age TINYINT(3)" style="shape=partialRectangle;connectable=0;fillColor=none;top=0;left=0;bottom=0;right=0;align=left;spacingLeft=6;overflow=hidden;" parent="B29HTKChRzMkVLrq_tk1-11" vertex="1">
      <mxGeometry x="30" width="220" height="30" as="geometry" />
    </mxCell>
    <mxCell id="B29HTKChRzMkVLrq_tk1-42" value="" style="shape=partialRectangle;collapsible=0;dropTarget=0;pointerEvents=0;fillColor=none;top=0;left=0;bottom=0;right=0;points=[[0,0.5],[1,0.5]];portConstraint=eastwest;" parent="B29HTKChRzMkVLrq_tk1-1" vertex="1">
      <mxGeometry y="150" width="250" height="30" as="geometry" />
    </mxCell>
    <mxCell id="B29HTKChRzMkVLrq_tk1-43" value="" style="shape=partialRectangle;connectable=0;fillColor=none;top=0;left=0;bottom=0;right=0;editable=1;overflow=hidden;" parent="B29HTKChRzMkVLrq_tk1-42" vertex="1">
      <mxGeometry width="30" height="30" as="geometry" />
    </mxCell>
    <mxCell id="B29HTKChRzMkVLrq_tk1-44" value="courriel VARCHAR(255) NN" style="shape=partialRectangle;connectable=0;fillColor=none;top=0;left=0;bottom=0;right=0;align=left;spacingLeft=6;overflow=hidden;" parent="B29HTKChRzMkVLrq_tk1-42" vertex="1">
      <mxGeometry x="30" width="220" height="30" as="geometry" />
    </mxCell>
    <mxCell id="B29HTKChRzMkVLrq_tk1-45" value="" style="shape=partialRectangle;collapsible=0;dropTarget=0;pointerEvents=0;fillColor=none;top=0;left=0;bottom=0;right=0;points=[[0,0.5],[1,0.5]];portConstraint=eastwest;" parent="B29HTKChRzMkVLrq_tk1-1" vertex="1">
      <mxGeometry y="180" width="250" height="30" as="geometry" />
    </mxCell>
    <mxCell id="B29HTKChRzMkVLrq_tk1-46" value="" style="shape=partialRectangle;connectable=0;fillColor=none;top=0;left=0;bottom=0;right=0;editable=1;overflow=hidden;" parent="B29HTKChRzMkVLrq_tk1-45" vertex="1">
      <mxGeometry width="30" height="30" as="geometry" />
    </mxCell>
    <mxCell id="B29HTKChRzMkVLrq_tk1-47" value="mot_de_passe VARCHAR(312) NN" style="shape=partialRectangle;connectable=0;fillColor=none;top=0;left=0;bottom=0;right=0;align=left;spacingLeft=6;overflow=hidden;" parent="B29HTKChRzMkVLrq_tk1-45" vertex="1">
      <mxGeometry x="30" width="220" height="30" as="geometry" />
    </mxCell>
    <mxCell id="B29HTKChRzMkVLrq_tk1-48" value="Permissions_livres_usagers" style="shape=table;startSize=30;container=1;collapsible=1;childLayout=tableLayout;fixedRows=1;rowLines=0;fontStyle=1;align=center;resizeLast=1;" parent="1" vertex="1">
      <mxGeometry x="40" y="320" width="250" height="120" as="geometry" />
    </mxCell>
    <mxCell id="B29HTKChRzMkVLrq_tk1-49" value="" style="shape=partialRectangle;collapsible=0;dropTarget=0;pointerEvents=0;fillColor=none;top=0;left=0;bottom=1;right=0;points=[[0,0.5],[1,0.5]];portConstraint=eastwest;" parent="B29HTKChRzMkVLrq_tk1-48" vertex="1">
      <mxGeometry y="30" width="250" height="30" as="geometry" />
    </mxCell>
    <mxCell id="B29HTKChRzMkVLrq_tk1-50" value="PK" style="shape=partialRectangle;connectable=0;fillColor=none;top=0;left=0;bottom=0;right=0;fontStyle=1;overflow=hidden;" parent="B29HTKChRzMkVLrq_tk1-49" vertex="1">
      <mxGeometry width="30" height="30" as="geometry" />
    </mxCell>
    <mxCell id="B29HTKChRzMkVLrq_tk1-51" value="id INT NN AUTO INCREMENT" style="shape=partialRectangle;connectable=0;fillColor=none;top=0;left=0;bottom=0;right=0;align=left;spacingLeft=6;fontStyle=5;overflow=hidden;" parent="B29HTKChRzMkVLrq_tk1-49" vertex="1">
      <mxGeometry x="30" width="220" height="30" as="geometry" />
    </mxCell>
    <mxCell id="B29HTKChRzMkVLrq_tk1-67" value="" style="shape=partialRectangle;collapsible=0;dropTarget=0;pointerEvents=0;fillColor=none;top=0;left=0;bottom=1;right=0;points=[[0,0.5],[1,0.5]];portConstraint=eastwest;" parent="B29HTKChRzMkVLrq_tk1-48" vertex="1">
      <mxGeometry y="60" width="250" height="30" as="geometry" />
    </mxCell>
    <mxCell id="B29HTKChRzMkVLrq_tk1-68" value="FK" style="shape=partialRectangle;connectable=0;fillColor=none;top=0;left=0;bottom=0;right=0;fontStyle=1;overflow=hidden;" parent="B29HTKChRzMkVLrq_tk1-67" vertex="1">
      <mxGeometry width="30" height="30" as="geometry" />
    </mxCell>
    <mxCell id="B29HTKChRzMkVLrq_tk1-69" value="id_usager INT NN" style="shape=partialRectangle;connectable=0;fillColor=none;top=0;left=0;bottom=0;right=0;align=left;spacingLeft=6;fontStyle=0;overflow=hidden;" parent="B29HTKChRzMkVLrq_tk1-67" vertex="1">
      <mxGeometry x="30" width="220" height="30" as="geometry" />
    </mxCell>
    <mxCell id="B29HTKChRzMkVLrq_tk1-70" value="" style="shape=partialRectangle;collapsible=0;dropTarget=0;pointerEvents=0;fillColor=none;top=0;left=0;bottom=1;right=0;points=[[0,0.5],[1,0.5]];portConstraint=eastwest;" parent="B29HTKChRzMkVLrq_tk1-48" vertex="1">
      <mxGeometry y="90" width="250" height="30" as="geometry" />
    </mxCell>
    <mxCell id="B29HTKChRzMkVLrq_tk1-71" value="FK" style="shape=partialRectangle;connectable=0;fillColor=none;top=0;left=0;bottom=0;right=0;fontStyle=1;overflow=hidden;" parent="B29HTKChRzMkVLrq_tk1-70" vertex="1">
      <mxGeometry width="30" height="30" as="geometry" />
    </mxCell>
    <mxCell id="B29HTKChRzMkVLrq_tk1-72" value="id_livre INT" style="shape=partialRectangle;connectable=0;fillColor=none;top=0;left=0;bottom=0;right=0;align=left;spacingLeft=6;fontStyle=0;overflow=hidden;" parent="B29HTKChRzMkVLrq_tk1-70" vertex="1">
      <mxGeometry x="30" width="220" height="30" as="geometry" />
    </mxCell>
    <mxCell id="B29HTKChRzMkVLrq_tk1-87" value="Livres" style="shape=table;startSize=30;container=1;collapsible=1;childLayout=tableLayout;fixedRows=1;rowLines=0;fontStyle=1;align=center;resizeLast=1;" parent="1" vertex="1">
      <mxGeometry x="406" y="190" width="250" height="160" as="geometry" />
    </mxCell>
    <mxCell id="B29HTKChRzMkVLrq_tk1-88" value="" style="shape=partialRectangle;collapsible=0;dropTarget=0;pointerEvents=0;fillColor=none;top=0;left=0;bottom=1;right=0;points=[[0,0.5],[1,0.5]];portConstraint=eastwest;" parent="B29HTKChRzMkVLrq_tk1-87" vertex="1">
      <mxGeometry y="30" width="250" height="30" as="geometry" />
    </mxCell>
    <mxCell id="B29HTKChRzMkVLrq_tk1-89" value="PK" style="shape=partialRectangle;connectable=0;fillColor=none;top=0;left=0;bottom=0;right=0;fontStyle=1;overflow=hidden;" parent="B29HTKChRzMkVLrq_tk1-88" vertex="1">
      <mxGeometry width="30" height="30" as="geometry" />
    </mxCell>
    <mxCell id="B29HTKChRzMkVLrq_tk1-90" value="id INT NN AUTO INCREMENT" style="shape=partialRectangle;connectable=0;fillColor=none;top=0;left=0;bottom=0;right=0;align=left;spacingLeft=6;fontStyle=5;overflow=hidden;" parent="B29HTKChRzMkVLrq_tk1-88" vertex="1">
      <mxGeometry x="30" width="220" height="30" as="geometry" />
    </mxCell>
    <mxCell id="B29HTKChRzMkVLrq_tk1-91" value="" style="shape=partialRectangle;collapsible=0;dropTarget=0;pointerEvents=0;fillColor=none;top=0;left=0;bottom=0;right=0;points=[[0,0.5],[1,0.5]];portConstraint=eastwest;" parent="B29HTKChRzMkVLrq_tk1-87" vertex="1">
      <mxGeometry y="60" width="250" height="30" as="geometry" />
    </mxCell>
    <mxCell id="B29HTKChRzMkVLrq_tk1-92" value="" style="shape=partialRectangle;connectable=0;fillColor=none;top=0;left=0;bottom=0;right=0;editable=1;overflow=hidden;" parent="B29HTKChRzMkVLrq_tk1-91" vertex="1">
      <mxGeometry width="30" height="30" as="geometry" />
    </mxCell>
    <mxCell id="B29HTKChRzMkVLrq_tk1-93" value="titre VARCHAR(150) NN" style="shape=partialRectangle;connectable=0;fillColor=none;top=0;left=0;bottom=0;right=0;align=left;spacingLeft=6;overflow=hidden;" parent="B29HTKChRzMkVLrq_tk1-91" vertex="1">
      <mxGeometry x="30" width="220" height="30" as="geometry" />
    </mxCell>
    <mxCell id="B29HTKChRzMkVLrq_tk1-94" value="" style="shape=partialRectangle;collapsible=0;dropTarget=0;pointerEvents=0;fillColor=none;top=0;left=0;bottom=0;right=0;points=[[0,0.5],[1,0.5]];portConstraint=eastwest;" parent="B29HTKChRzMkVLrq_tk1-87" vertex="1">
      <mxGeometry y="90" width="250" height="30" as="geometry" />
    </mxCell>
    <mxCell id="B29HTKChRzMkVLrq_tk1-95" value="" style="shape=partialRectangle;connectable=0;fillColor=none;top=0;left=0;bottom=0;right=0;editable=1;overflow=hidden;" parent="B29HTKChRzMkVLrq_tk1-94" vertex="1">
      <mxGeometry width="30" height="30" as="geometry" />
    </mxCell>
    <mxCell id="B29HTKChRzMkVLrq_tk1-96" value="isbn VARCHAR(255) NN" style="shape=partialRectangle;connectable=0;fillColor=none;top=0;left=0;bottom=0;right=0;align=left;spacingLeft=6;overflow=hidden;" parent="B29HTKChRzMkVLrq_tk1-94" vertex="1">
      <mxGeometry x="30" width="220" height="30" as="geometry" />
    </mxCell>
    <mxCell id="B29HTKChRzMkVLrq_tk1-97" value="" style="shape=partialRectangle;collapsible=0;dropTarget=0;pointerEvents=0;fillColor=none;top=0;left=0;bottom=0;right=0;points=[[0,0.5],[1,0.5]];portConstraint=eastwest;" parent="B29HTKChRzMkVLrq_tk1-87" vertex="1">
      <mxGeometry y="120" width="250" height="30" as="geometry" />
    </mxCell>
    <mxCell id="B29HTKChRzMkVLrq_tk1-98" value="" style="shape=partialRectangle;connectable=0;fillColor=none;top=0;left=0;bottom=0;right=0;editable=1;overflow=hidden;" parent="B29HTKChRzMkVLrq_tk1-97" vertex="1">
      <mxGeometry width="30" height="30" as="geometry" />
    </mxCell>
    <mxCell id="B29HTKChRzMkVLrq_tk1-99" value="auteur varchar(50) NN" style="shape=partialRectangle;connectable=0;fillColor=none;top=0;left=0;bottom=0;right=0;align=left;spacingLeft=6;overflow=hidden;" parent="B29HTKChRzMkVLrq_tk1-97" vertex="1">
      <mxGeometry x="30" width="220" height="30" as="geometry" />
    </mxCell>
    <mxCell id="B29HTKChRzMkVLrq_tk1-106" value="Chapitres_livres" style="shape=table;startSize=30;container=1;collapsible=1;childLayout=tableLayout;fixedRows=1;rowLines=0;fontStyle=1;align=center;resizeLast=1;" parent="1" vertex="1">
      <mxGeometry x="406" y="410" width="250" height="160" as="geometry" />
    </mxCell>
    <mxCell id="B29HTKChRzMkVLrq_tk1-107" value="" style="shape=partialRectangle;collapsible=0;dropTarget=0;pointerEvents=0;fillColor=none;top=0;left=0;bottom=1;right=0;points=[[0,0.5],[1,0.5]];portConstraint=eastwest;" parent="B29HTKChRzMkVLrq_tk1-106" vertex="1">
      <mxGeometry y="30" width="250" height="30" as="geometry" />
    </mxCell>
    <mxCell id="B29HTKChRzMkVLrq_tk1-108" value="PK" style="shape=partialRectangle;connectable=0;fillColor=none;top=0;left=0;bottom=0;right=0;fontStyle=1;overflow=hidden;" parent="B29HTKChRzMkVLrq_tk1-107" vertex="1">
      <mxGeometry width="30" height="30" as="geometry" />
    </mxCell>
    <mxCell id="B29HTKChRzMkVLrq_tk1-109" value="id INT NN AUTO INCREMENT" style="shape=partialRectangle;connectable=0;fillColor=none;top=0;left=0;bottom=0;right=0;align=left;spacingLeft=6;fontStyle=5;overflow=hidden;" parent="B29HTKChRzMkVLrq_tk1-107" vertex="1">
      <mxGeometry x="30" width="220" height="30" as="geometry" />
    </mxCell>
    <mxCell id="B29HTKChRzMkVLrq_tk1-119" value="" style="shape=partialRectangle;collapsible=0;dropTarget=0;pointerEvents=0;fillColor=none;top=0;left=0;bottom=1;right=0;points=[[0,0.5],[1,0.5]];portConstraint=eastwest;" parent="B29HTKChRzMkVLrq_tk1-106" vertex="1">
      <mxGeometry y="60" width="250" height="30" as="geometry" />
    </mxCell>
    <mxCell id="B29HTKChRzMkVLrq_tk1-120" value="FK" style="shape=partialRectangle;connectable=0;fillColor=none;top=0;left=0;bottom=0;right=0;fontStyle=1;overflow=hidden;" parent="B29HTKChRzMkVLrq_tk1-119" vertex="1">
      <mxGeometry width="30" height="30" as="geometry" />
    </mxCell>
    <mxCell id="B29HTKChRzMkVLrq_tk1-121" value="id_livre INT NN" style="shape=partialRectangle;connectable=0;fillColor=none;top=0;left=0;bottom=0;right=0;align=left;spacingLeft=6;fontStyle=0;overflow=hidden;" parent="B29HTKChRzMkVLrq_tk1-119" vertex="1">
      <mxGeometry x="30" width="220" height="30" as="geometry" />
    </mxCell>
    <mxCell id="B29HTKChRzMkVLrq_tk1-110" value="" style="shape=partialRectangle;collapsible=0;dropTarget=0;pointerEvents=0;fillColor=none;top=0;left=0;bottom=0;right=0;points=[[0,0.5],[1,0.5]];portConstraint=eastwest;" parent="B29HTKChRzMkVLrq_tk1-106" vertex="1">
      <mxGeometry y="90" width="250" height="30" as="geometry" />
    </mxCell>
    <mxCell id="B29HTKChRzMkVLrq_tk1-111" value="" style="shape=partialRectangle;connectable=0;fillColor=none;top=0;left=0;bottom=0;right=0;editable=1;overflow=hidden;" parent="B29HTKChRzMkVLrq_tk1-110" vertex="1">
      <mxGeometry width="30" height="30" as="geometry" />
    </mxCell>
    <mxCell id="B29HTKChRzMkVLrq_tk1-112" value="numero TINYINT(4) NN" style="shape=partialRectangle;connectable=0;fillColor=none;top=0;left=0;bottom=0;right=0;align=left;spacingLeft=6;overflow=hidden;" parent="B29HTKChRzMkVLrq_tk1-110" vertex="1">
      <mxGeometry x="30" width="220" height="30" as="geometry" />
    </mxCell>
    <mxCell id="B29HTKChRzMkVLrq_tk1-122" value="" style="shape=partialRectangle;collapsible=0;dropTarget=0;pointerEvents=0;fillColor=none;top=0;left=0;bottom=0;right=0;points=[[0,0.5],[1,0.5]];portConstraint=eastwest;" parent="B29HTKChRzMkVLrq_tk1-106" vertex="1">
      <mxGeometry y="120" width="250" height="30" as="geometry" />
    </mxCell>
    <mxCell id="B29HTKChRzMkVLrq_tk1-123" value="" style="shape=partialRectangle;connectable=0;fillColor=none;top=0;left=0;bottom=0;right=0;editable=1;overflow=hidden;" parent="B29HTKChRzMkVLrq_tk1-122" vertex="1">
      <mxGeometry width="30" height="30" as="geometry" />
    </mxCell>
    <mxCell id="B29HTKChRzMkVLrq_tk1-124" value="contenue TEXT NN" style="shape=partialRectangle;connectable=0;fillColor=none;top=0;left=0;bottom=0;right=0;align=left;spacingLeft=6;overflow=hidden;" parent="B29HTKChRzMkVLrq_tk1-122" vertex="1">
      <mxGeometry x="30" width="220" height="30" as="geometry" />
    </mxCell>
    <mxCell id="B29HTKChRzMkVLrq_tk1-125" value="Sauvegardes_parties" style="shape=table;startSize=30;container=1;collapsible=1;childLayout=tableLayout;fixedRows=1;rowLines=0;fontStyle=1;align=center;resizeLast=1;" parent="1" vertex="1">
      <mxGeometry x="790" y="100" width="250" height="190" as="geometry" />
    </mxCell>
    <mxCell id="B29HTKChRzMkVLrq_tk1-126" value="" style="shape=partialRectangle;collapsible=0;dropTarget=0;pointerEvents=0;fillColor=none;top=0;left=0;bottom=1;right=0;points=[[0,0.5],[1,0.5]];portConstraint=eastwest;" parent="B29HTKChRzMkVLrq_tk1-125" vertex="1">
      <mxGeometry y="30" width="250" height="30" as="geometry" />
    </mxCell>
    <mxCell id="B29HTKChRzMkVLrq_tk1-127" value="PK" style="shape=partialRectangle;connectable=0;fillColor=none;top=0;left=0;bottom=0;right=0;fontStyle=1;overflow=hidden;" parent="B29HTKChRzMkVLrq_tk1-126" vertex="1">
      <mxGeometry width="30" height="30" as="geometry" />
    </mxCell>
    <mxCell id="B29HTKChRzMkVLrq_tk1-128" value="id INT NN AUTO INCREMENT" style="shape=partialRectangle;connectable=0;fillColor=none;top=0;left=0;bottom=0;right=0;align=left;spacingLeft=6;fontStyle=5;overflow=hidden;" parent="B29HTKChRzMkVLrq_tk1-126" vertex="1">
      <mxGeometry x="30" width="220" height="30" as="geometry" />
    </mxCell>
    <mxCell id="B29HTKChRzMkVLrq_tk1-129" value="" style="shape=partialRectangle;collapsible=0;dropTarget=0;pointerEvents=0;fillColor=none;top=0;left=0;bottom=1;right=0;points=[[0,0.5],[1,0.5]];portConstraint=eastwest;" parent="B29HTKChRzMkVLrq_tk1-125" vertex="1">
      <mxGeometry y="60" width="250" height="30" as="geometry" />
    </mxCell>
    <mxCell id="B29HTKChRzMkVLrq_tk1-130" value="FK" style="shape=partialRectangle;connectable=0;fillColor=none;top=0;left=0;bottom=0;right=0;fontStyle=1;overflow=hidden;" parent="B29HTKChRzMkVLrq_tk1-129" vertex="1">
      <mxGeometry width="30" height="30" as="geometry" />
    </mxCell>
    <mxCell id="B29HTKChRzMkVLrq_tk1-131" value="id_usager INT NN" style="shape=partialRectangle;connectable=0;fillColor=none;top=0;left=0;bottom=0;right=0;align=left;spacingLeft=6;fontStyle=0;overflow=hidden;" parent="B29HTKChRzMkVLrq_tk1-129" vertex="1">
      <mxGeometry x="30" width="220" height="30" as="geometry" />
    </mxCell>
    <mxCell id="B29HTKChRzMkVLrq_tk1-138" value="" style="shape=partialRectangle;collapsible=0;dropTarget=0;pointerEvents=0;fillColor=none;top=0;left=0;bottom=1;right=0;points=[[0,0.5],[1,0.5]];portConstraint=eastwest;" parent="B29HTKChRzMkVLrq_tk1-125" vertex="1">
      <mxGeometry y="90" width="250" height="30" as="geometry" />
    </mxCell>
    <mxCell id="B29HTKChRzMkVLrq_tk1-139" value="FK" style="shape=partialRectangle;connectable=0;fillColor=none;top=0;left=0;bottom=0;right=0;fontStyle=1;overflow=hidden;" parent="B29HTKChRzMkVLrq_tk1-138" vertex="1">
      <mxGeometry width="30" height="30" as="geometry" />
    </mxCell>
    <mxCell id="B29HTKChRzMkVLrq_tk1-140" value="id_chapitre  INT NN" style="shape=partialRectangle;connectable=0;fillColor=none;top=0;left=0;bottom=0;right=0;align=left;spacingLeft=6;fontStyle=0;overflow=hidden;" parent="B29HTKChRzMkVLrq_tk1-138" vertex="1">
      <mxGeometry x="30" width="220" height="30" as="geometry" />
    </mxCell>
    <mxCell id="B29HTKChRzMkVLrq_tk1-141" value="" style="shape=partialRectangle;collapsible=0;dropTarget=0;pointerEvents=0;fillColor=none;top=0;left=0;bottom=1;right=0;points=[[0,0.5],[1,0.5]];portConstraint=eastwest;" parent="B29HTKChRzMkVLrq_tk1-125" vertex="1">
      <mxGeometry y="120" width="250" height="30" as="geometry" />
    </mxCell>
    <mxCell id="B29HTKChRzMkVLrq_tk1-142" value="FK" style="shape=partialRectangle;connectable=0;fillColor=none;top=0;left=0;bottom=0;right=0;fontStyle=1;overflow=hidden;" parent="B29HTKChRzMkVLrq_tk1-141" vertex="1">
      <mxGeometry width="30" height="30" as="geometry" />
    </mxCell>
    <mxCell id="B29HTKChRzMkVLrq_tk1-143" value="id_livre INT NN" style="shape=partialRectangle;connectable=0;fillColor=none;top=0;left=0;bottom=0;right=0;align=left;spacingLeft=6;fontStyle=0;overflow=hidden;" parent="B29HTKChRzMkVLrq_tk1-141" vertex="1">
      <mxGeometry x="30" width="220" height="30" as="geometry" />
    </mxCell>
    <mxCell id="B29HTKChRzMkVLrq_tk1-132" value="" style="shape=partialRectangle;collapsible=0;dropTarget=0;pointerEvents=0;fillColor=none;top=0;left=0;bottom=0;right=0;points=[[0,0.5],[1,0.5]];portConstraint=eastwest;" parent="B29HTKChRzMkVLrq_tk1-125" vertex="1">
      <mxGeometry y="150" width="250" height="30" as="geometry" />
    </mxCell>
    <mxCell id="B29HTKChRzMkVLrq_tk1-133" value="" style="shape=partialRectangle;connectable=0;fillColor=none;top=0;left=0;bottom=0;right=0;editable=1;overflow=hidden;" parent="B29HTKChRzMkVLrq_tk1-132" vertex="1">
      <mxGeometry width="30" height="30" as="geometry" />
    </mxCell>
    <mxCell id="B29HTKChRzMkVLrq_tk1-134" value="page TINYINT(8)" style="shape=partialRectangle;connectable=0;fillColor=none;top=0;left=0;bottom=0;right=0;align=left;spacingLeft=6;overflow=hidden;" parent="B29HTKChRzMkVLrq_tk1-132" vertex="1">
      <mxGeometry x="30" width="220" height="30" as="geometry" />
    </mxCell>
    <mxCell id="B29HTKChRzMkVLrq_tk1-144" style="edgeStyle=orthogonalEdgeStyle;rounded=0;orthogonalLoop=1;jettySize=auto;html=1;entryX=1;entryY=0.5;entryDx=0;entryDy=0;" parent="1" source="B29HTKChRzMkVLrq_tk1-129" target="B29HTKChRzMkVLrq_tk1-2" edge="1">
      <mxGeometry relative="1" as="geometry">
        <Array as="points">
          <mxPoint x="660" y="175" />
          <mxPoint x="660" y="85" />
        </Array>
      </mxGeometry>
    </mxCell>
    <mxCell id="B29HTKChRzMkVLrq_tk1-146" style="edgeStyle=orthogonalEdgeStyle;rounded=0;orthogonalLoop=1;jettySize=auto;html=1;entryX=1;entryY=0.5;entryDx=0;entryDy=0;" parent="1" source="B29HTKChRzMkVLrq_tk1-138" target="B29HTKChRzMkVLrq_tk1-107" edge="1">
      <mxGeometry relative="1" as="geometry">
        <Array as="points">
          <mxPoint x="760" y="205" />
          <mxPoint x="760" y="455" />
        </Array>
      </mxGeometry>
    </mxCell>
    <mxCell id="B29HTKChRzMkVLrq_tk1-147" style="edgeStyle=orthogonalEdgeStyle;rounded=0;orthogonalLoop=1;jettySize=auto;html=1;exitX=0;exitY=0.5;exitDx=0;exitDy=0;" parent="1" source="B29HTKChRzMkVLrq_tk1-141" target="B29HTKChRzMkVLrq_tk1-88" edge="1">
      <mxGeometry relative="1" as="geometry" />
    </mxCell>
    <mxCell id="B29HTKChRzMkVLrq_tk1-148" style="edgeStyle=orthogonalEdgeStyle;rounded=0;orthogonalLoop=1;jettySize=auto;html=1;entryX=0;entryY=0.633;entryDx=0;entryDy=0;entryPerimeter=0;" parent="1" source="B29HTKChRzMkVLrq_tk1-119" target="B29HTKChRzMkVLrq_tk1-88" edge="1">
      <mxGeometry relative="1" as="geometry" />
    </mxCell>
    <mxCell id="B29HTKChRzMkVLrq_tk1-149" style="edgeStyle=orthogonalEdgeStyle;rounded=0;orthogonalLoop=1;jettySize=auto;html=1;exitX=0;exitY=0.5;exitDx=0;exitDy=0;entryX=0;entryY=0.5;entryDx=0;entryDy=0;" parent="1" source="B29HTKChRzMkVLrq_tk1-67" target="B29HTKChRzMkVLrq_tk1-2" edge="1">
      <mxGeometry relative="1" as="geometry" />
    </mxCell>
    <mxCell id="B29HTKChRzMkVLrq_tk1-150" style="edgeStyle=orthogonalEdgeStyle;rounded=0;orthogonalLoop=1;jettySize=auto;html=1;exitX=1;exitY=0.5;exitDx=0;exitDy=0;entryX=0.004;entryY=0.261;entryDx=0;entryDy=0;entryPerimeter=0;" parent="1" source="B29HTKChRzMkVLrq_tk1-70" target="B29HTKChRzMkVLrq_tk1-88" edge="1">
      <mxGeometry relative="1" as="geometry" />
    </mxCell>
  </root>
</mxGraphModel>
